<svg version="1.1" viewBox="0.0 0.0 960.0 720.0" fill="none" stroke="none" stroke-linecap="square" stroke-miterlimit="10" xmlns:xlink="http://www.w3.org/1999/xlink" xmlns="http://www.w3.org/2000/svg"><clipPath id="p.0"><path d="m0 0l960.0 0l0 720.0l-960.0 0l0 -720.0z" clip-rule="nonzero"/></clipPath><g clip-path="url(#p.0)"><path fill="#000000" fill-opacity="0.0" d="m0 0l960.0 0l0 720.0l-960.0 0z" fill-rule="evenodd"/><path fill="#000000" fill-opacity="0.0" d="m287.93524 525.6816c80.760895 0 161.6955 1.8845825 242.25195 -3.8582153c34.022095 -2.425476 68.4624 2.3016968 102.30707 -1.9317627c28.758972 -3.597351 58.058044 7.064392 86.863525 3.8608398c16.39093 -1.822815 30.932312 -11.453735 46.3255 -17.37268c18.685425 -7.184906 45.300476 -22.649475 42.467163 -42.467194c-1.8734131 -13.103577 -11.454102 -23.868744 -17.37268 -35.70865c-7.869812 -15.743103 -12.942078 -34.803436 -27.02362 -45.362213c-11.136841 -8.350739 -22.809753 -16.002655 -34.745422 -23.165344c-4.413269 -2.648468 -11.79657 3.634491 -15.440979 0c-1.9326172 -1.9273987 4.7141724 -3.2815857 5.790039 -5.790039c4.065918 -9.479736 5.759094 -21.307007 1.9291382 -30.884521c-8.850769 -22.132935 -37.883484 -31.091278 -60.80316 -37.64041c-27.01117 -7.718231 -56.910217 6.7385864 -82.03674 19.30185c-7.7321777 3.8660889 -9.693665 18.338562 -18.338562 18.338562c-3.5968628 0 -2.5236206 -6.8881226 -4.826782 -9.650909c-8.304138 -9.961365 -17.365234 -19.586365 -27.989502 -27.02362c-23.407318 -16.385773 -58.668823 -22.836761 -84.93176 -11.582672c-20.463928 8.769104 -43.120148 20.625824 -53.083984 40.53543c-3.1870728 6.3683777 -7.6397705 13.201416 -6.75589 20.2677c0.30407715 2.4310913 5.3450317 6.7559204 2.8950195 6.7559204c-5.905304 0 -9.763214 -7.061554 -15.4409485 -8.685028c-15.185577 -4.3421326 -32.056152 -7.05011 -47.293976 -2.8950195c-23.901062 6.517395 -33.70401 37.013397 -45.35959 58.874023c-15.258057 28.61731 -27.25441 64.36734 -18.338562 95.54855c4.6168823 16.146545 22.408264 55.556152 29.91861 40.5354" fill-rule="evenodd"/><path stroke="#434343" stroke-width="24.0" stroke-linejoin="round" stroke-linecap="butt" d="m287.93524 525.6816c80.760895 0 161.6955 1.8845825 242.25195 -3.8582153c34.022095 -2.425476 68.4624 2.3016968 102.30707 -1.9317627c28.758972 -3.597351 58.058044 7.064392 86.863525 3.8608398c16.39093 -1.822815 30.932312 -11.453735 46.3255 -17.37268c18.685425 -7.184906 45.300476 -22.649475 42.467163 -42.467194c-1.8734131 -13.103577 -11.454102 -23.868744 -17.37268 -35.70865c-7.869812 -15.743103 -12.942078 -34.803436 -27.02362 -45.362213c-11.136841 -8.350739 -22.809753 -16.002655 -34.745422 -23.165344c-4.413269 -2.648468 -11.79657 3.634491 -15.440979 0c-1.9326172 -1.9273987 4.7141724 -3.2815857 5.790039 -5.790039c4.065918 -9.479736 5.759094 -21.307007 1.9291382 -30.884521c-8.850769 -22.132935 -37.883484 -31.091278 -60.80316 -37.64041c-27.01117 -7.718231 -56.910217 6.7385864 -82.03674 19.30185c-7.7321777 3.8660889 -9.693665 18.338562 -18.338562 18.338562c-3.5968628 0 -2.5236206 -6.8881226 -4.826782 -9.650909c-8.304138 -9.961365 -17.365234 -19.586365 -27.989502 -27.02362c-23.407318 -16.385773 -58.668823 -22.836761 -84.93176 -11.582672c-20.463928 8.769104 -43.120148 20.625824 -53.083984 40.53543c-3.1870728 6.3683777 -7.6397705 13.201416 -6.75589 20.2677c0.30407715 2.4310913 5.3450317 6.7559204 2.8950195 6.7559204c-5.905304 0 -9.763214 -7.061554 -15.4409485 -8.685028c-15.185577 -4.3421326 -32.056152 -7.05011 -47.293976 -2.8950195c-23.901062 6.517395 -33.70401 37.013397 -45.35959 58.874023c-15.258057 28.61731 -27.25441 64.36734 -18.338562 95.54855c4.6168823 16.146545 22.408264 55.556152 29.91861 40.5354" fill-rule="evenodd"/><path fill="#000000" fill-opacity="0.0" d="m285.26443 515.8595c-0.16757202 2.230896 -0.8378906 11.154602 -1.0054626 13.385559" fill-rule="evenodd"/><path stroke="#434343" stroke-width="24.0" stroke-linejoin="round" stroke-linecap="butt" d="m285.26443 515.8595c-0.16757202 2.230896 -0.8378906 11.154602 -1.0054626 13.385559" fill-rule="evenodd"/></g></svg>