<svg version="1.1" viewBox="0.0 0.0 960.0 720.0" fill="none" stroke="none" stroke-linecap="square" stroke-miterlimit="10" xmlns:xlink="http://www.w3.org/1999/xlink" xmlns="http://www.w3.org/2000/svg"><clipPath id="p.0"><path d="m0 0l960.0 0l0 720.0l-960.0 0l0 -720.0z" clip-rule="nonzero"/></clipPath><g clip-path="url(#p.0)"><path fill="#000000" fill-opacity="0.0" d="m0 0l960.0 0l0 720.0l-960.0 0z" fill-rule="evenodd"/><path fill="#000000" fill-opacity="0.0" d="m299.51706 276.67453c-19.817657 19.817688 -39.930664 39.686493 -62.73491 55.979004c-14.881439 10.63208 -42.46457 16.456116 -42.46457 34.745422c0 8.364288 16.632355 4.424469 23.162735 9.650909c19.50798 15.612762 42.261047 26.854431 61.769012 42.467194c8.591309 6.875824 21.141998 10.422791 26.05777 20.26773" fill-rule="evenodd"/><path stroke="#434343" stroke-width="24.0" stroke-linejoin="round" stroke-linecap="butt" d="m299.51706 276.67453c-19.817657 19.817688 -39.930664 39.686493 -62.73491 55.979004c-14.881439 10.63208 -42.46457 16.456116 -42.46457 34.745422c0 8.364288 16.632355 4.424469 23.162735 9.650909c19.50798 15.612762 42.261047 26.854431 61.769012 42.467194c8.591309 6.875824 21.141998 10.422791 26.05777 20.26773" fill-rule="evenodd"/><path fill="#000000" fill-opacity="0.0" d="m449.11548 249.65092c-32.451324 43.265182 -65.822845 86.23332 -92.653534 133.1916c-18.149963 31.765533 -28.070557 67.63483 -44.39633 100.375305" fill-rule="evenodd"/><path stroke="#434343" stroke-width="24.0" stroke-linejoin="round" stroke-linecap="butt" d="m449.11548 249.65092c-32.451324 43.265182 -65.822845 86.23332 -92.653534 133.1916c-18.149963 31.765533 -28.070557 67.63483 -44.39633 100.375305" fill-rule="evenodd"/><path fill="#000000" fill-opacity="0.0" d="m470.3491 285.3622c21.348053 14.23526 23.213135 46.066925 38.606293 66.595795c4.5011597 6.002899 6.274597 13.996399 11.580078 19.30185c3.8737793 3.8738098 13.654663 7.986969 10.61676 12.545929c-5.533325 8.303741 -19.528076 5.3276978 -27.989502 10.616791c-17.563263 10.978516 -23.93393 36.109497 -42.46457 45.362213" fill-rule="evenodd"/><path stroke="#434343" stroke-width="24.0" stroke-linejoin="round" stroke-linecap="butt" d="m470.3491 285.3622c21.348053 14.23526 23.213135 46.066925 38.606293 66.595795c4.5011597 6.002899 6.274597 13.996399 11.580078 19.30185c3.8737793 3.8738098 13.654663 7.986969 10.61676 12.545929c-5.533325 8.303741 -19.528076 5.3276978 -27.989502 10.616791c-17.563263 10.978516 -23.93393 36.109497 -42.46457 45.362213" fill-rule="evenodd"/></g></svg>